<?xml version="1.0" encoding="utf-8"?>
<!-- Generator: Adobe Illustrator 20.1.0, SVG Export Plug-In . SVG Version: 6.00 Build 0)  -->
<!DOCTYPE svg PUBLIC "-//W3C//DTD SVG 1.1//EN" "http://www.w3.org/Graphics/SVG/1.1/DTD/svg11.dtd">
<svg version="1.1" id="Layer_1" xmlns="http://www.w3.org/2000/svg" xmlns:xlink="http://www.w3.org/1999/xlink" x="0px" y="0px"
	 viewBox="0 0 50.7 68.5" style="enable-background:new 0 0 50.7 68.5;" xml:space="preserve">
<style type="text/css">
	.st0{fill:#AF1316;}
</style>
<title>logo_icon_red</title>
<path class="st0" d="M50.7,56.2c0,0,0-0.1,0-0.1l-1.1-7.2L43.1,7.1l0,0c-0.1-0.4-0.3-0.8-0.5-1.2c-1-1.7-2.5-3-4.3-3.7
	C35.8,0.9,32,0,26.3,0c-3.5-0.1-7,0.3-10.4,1.2c-3.9,1.1-6,2.7-7.1,4.2C8.3,5.9,8,6.5,7.8,7.2C7.7,7.4,7.6,7.5,7.6,7.7v0.2l0,0
	c0,0,0,0,0,0.1l-2,11.8L1.4,47l-0.7,4.5l-0.3,2.1L0,56.1c0,0.1,0,0.1,0,0.2l0,0c0,0.1,0,0.2,0,0.3c0,0.9,0.2,1.8,0.6,2.6
	c1.1,2.1,2.9,3.8,5,4.9c4.6,2.7,11.8,4.4,19.7,4.4c11.6,0,21.5-3.7,24.4-8.8c0.6-1,0.9-2.1,0.9-3.2c0-0.1,0-0.1,0-0.2
	S50.7,56.2,50.7,56.2z M5.4,48.9l4.7-31.3l0.7-4.7c0.2,0.2,0.4,0.3,0.6,0.4c0.4,0.3,0.8,0.6,1.3,0.8c1.1,0.6,2.2,1,3.3,1.3
	c0.6,0.2,1.3,0.4,2,0.5c2.4,0.5,4.8,0.7,7.2,0.7c1,0,1.9,0,2.8-0.1l0.5,2.8l0.1,0.6c-0.3,0.1-0.7,0.2-1,0.3c-0.7,0.2-1.3,0.6-1.9,1
	c-2.1,1.5-3.3,4-3,6.6c0.1,1.7,0.6,3.3,1.3,4.8c1.2,2.3,3.2,4.2,5.7,6.4c1.5,1.3,2.7,2.4,3.8,3.4l0.6,0.6c0.8,0.8,1.4,1.6,1.9,2.6
	l0.1,0.2c0.1,0.3,0.2,0.5,0.3,0.8c0.1,0.2,0.1,0.4,0.1,0.6c0,0.1,0,0.2,0.1,0.3c0.1,0.4,0.1,0.9,0.1,1.3c0,1.2-0.5,2.3-1.5,3
	c-0.5,0.4-1.2,0.6-1.8,0.6h-0.2c-2,0-3.8-1-5-2.5l-0.8,3.3c0.2,0.1,0.5,0.3,0.8,0.4c1.7,0.7,3.5,1.1,5.3,1h0.4h0.7l0.2,1.2l0.5,3.1
	c0,0.3,0.1,0.7,0.1,1c0,0.3,0,0.6,0,0.9c0,0.3-0.1,0.6-0.2,0.8l3.5-0.1c-0.3-0.4-0.5-0.8-0.7-1.2c-0.2-0.5-0.4-1-0.5-1.6l-0.8-4.8
	c0.3-0.1,0.7-0.3,1-0.4c2.2-1.1,3.7-3.3,4-5.7c1.7,0.9,3.3,2.1,4.6,3.5c1,1.2,1.6,2.6,1.7,4.2c-0.1,2-1.1,3.9-2.8,5.1
	c-2.5,2.2-6.6,3.9-11.6,4.8c-2.7,0.5-5.5,0.7-8.2,0.7c-4.3,0-8.5-0.5-12.6-1.8c-1.7-0.5-3.3-1.2-4.8-2c-3.2-1.8-5.2-4.2-5.2-6.8
	c0-2.4,1.7-4.7,4.5-6.6c1.2-0.8,2.5-1.5,3.9-2c2.3-0.9,4.6-1.6,7-2c0,0,0-0.1,0-0.1c-4,0.5-7.9,1.6-11.5,3.3
	c-0.4,0.2-0.9,0.5-1.3,0.7L5.4,48.9z M44.8,48.9c-0.8-0.5-1.7-0.9-2.6-1.3l-0.3-0.1c0-0.2,0.1-0.5,0.1-0.8c0.3-5.1-3-9.1-6-11.8
	s-7-5.8-7.5-8.1c-0.4-1.3-0.2-2.7,0.5-3.9c0.2-0.3,0.5-0.5,0.9-0.7c0.5-0.2,1-0.3,1.5-0.3c0.3,0,0.7,0,1,0.1
	c1.3,0.4,2.4,1.2,3.2,2.3l0.7-3h0c-1.3-0.8-2.8-1.3-4.3-1.4c-0.4,0-0.7,0-1.1,0l-0.6-3.4l0.5-0.1c1.6-0.2,3.1-0.6,4.6-1.1
	c0.4-0.1,0.8-0.3,1.2-0.4c0.7-0.3,1.4-0.6,2-1l0.2-0.1c0.3-0.2,0.6-0.5,0.9-0.7l1.3,8.7l2.3,16.1L44.8,48.9z M38.6,10.3
	c0,0.6-0.3,1.1-0.8,1.4c-0.1,0.1-0.3,0.2-0.4,0.3c-2.1,1.4-6.8,2.5-12.1,2.5c-1.8,0-3.6-0.1-5.4-0.4c-2-0.2-4-0.8-5.9-1.6
	c-1.3-0.7-2.1-1.4-2.1-2.3c0-1.7,3.3-3.1,8.1-3.7c1.8-0.2,3.5-0.3,5.3-0.3c2.9,0,5.8,0.3,8.6,0.9C36.7,7.9,38.6,9,38.6,10.3z
	 M46.5,50l-0.4-0.3l-0.4-2.6l-2.1-14l-2.1-14.5l-1.1-7.5c0-0.2-0.1-0.4-0.2-0.6l0,0c-0.1-0.4-0.3-0.7-0.5-1
	c-0.3-0.5-0.7-0.9-1.1-1.2l-0.2-0.1C35.8,6.8,31,5.4,25.2,5.4c-4.1-0.1-8.2,0.6-12,2.1L13,7.6l-0.3,0.1c-0.5,0.2-0.9,0.5-1.3,0.8
	l-0.3,0.3c-0.5,0.5-0.9,1.1-1.1,1.9c0,0.1,0,0.2,0,0.4v0.1v0.1l-0.2,1.4l-0.1,0.6L7,31.2L4.2,49.5l-0.1,0.6
	c-0.9,0.6-1.7,1.4-2.4,2.2L4.8,32l1.7-11.1l2-12.7l0,0V8c0.1-0.5,0.3-0.9,0.5-1.3l0.1-0.2c1.1-1.6,2.7-2.9,4.5-3.6
	c2.6-1.1,6.6-2,12.5-2c7.5,0,11.4,1.7,13.5,3.2c0.8,0.6,1.4,1.3,1.9,2.1c0.1,0.2,0.2,0.4,0.3,0.7c0,0.1,0,0.1,0,0.2l0,0l0,0
	l4.2,26.6L49,52.2C48.3,51.4,47.4,50.6,46.5,50z"/>
</svg>
